# xmcd
#
# Track frame offsets: 
#        150
#        14547
#        41737
#        74065
#        103208
#        157451
#
# Disc length: 2448 seconds
#
# Revision: 0
# Processed by: cddbd v1.5.2PL0 Copyright (c) Steve Scherf et al.
# Submitted via: ExactAudioCopy v0.95b3
#
DISCID=5c098e06
DTITLE=Sly and the Family Stone  - Fillmore East, NYC - 10-5-68  - Dis
DTITLE=c 1
DYEAR=1900
DGENRE=
TTITLE0=Life
TTITLE1=Color Me True
TTITLE2=It Won't Be Long
TTITLE3=Are You Ready?
TTITLE4=Dance to the Music
TTITLE5=M'Lady
EXTD=
EXTT0=
EXTT1=
EXTT2=
EXTT3=
EXTT4=
EXTT5=
PLAYORDER=
